<svg width="488" height="304" viewBox="0 0 488 304" fill="none" xmlns="http://www.w3.org/2000/svg">
<path d="M408.437 37.1849C408.19 36.6845 407.569 36.4198 407.051 36.5937C406.534 36.7677 406.315 37.3143 406.563 37.8147L408.437 37.1849ZM233.294 104.766C233.815 102.428 235.414 100.666 237.98 99.3597C240.566 98.0431 244.09 97.2138 248.329 96.7582C256.809 95.8468 267.848 96.4575 279.204 97.3601C290.511 98.2586 302.134 99.4472 311.615 99.648C316.36 99.7484 320.625 99.6037 324.085 99.0388C327.516 98.4785 330.317 97.4807 331.951 95.7501L330.319 94.401C329.093 95.7004 326.806 96.6093 323.506 97.1482C320.234 97.6823 316.123 97.8293 311.43 97.73C302.037 97.5311 290.542 96.354 279.151 95.4487C267.81 94.5473 256.573 93.916 247.864 94.8521C243.508 95.3202 239.709 96.1871 236.826 97.655C233.924 99.133 231.91 101.245 231.256 104.183L233.294 104.766ZM331.951 95.7501C334.801 92.7307 336.938 90.8025 339.195 89.5231C341.426 88.2579 343.829 87.5972 347.269 87.2165C350.741 86.8322 355.196 86.7393 361.537 86.5801C367.858 86.4213 375.992 86.197 386.75 85.5441L386.385 83.6296C375.665 84.2802 367.561 84.5037 361.249 84.6623C354.957 84.8203 350.384 84.9141 346.797 85.3111C343.178 85.7116 340.492 86.4267 337.969 87.8572C335.471 89.2733 333.189 91.3603 330.319 94.401L331.951 95.7501ZM386.75 85.5441C397.689 84.8801 404.629 81.5364 408.796 76.7815C412.95 72.0419 414.251 66.0125 414.181 60.1623C414.111 54.312 412.672 48.5693 411.261 44.3069C410.555 42.1716 409.852 40.3981 409.325 39.1559C409.061 38.5346 408.841 38.0457 408.686 37.7102C408.609 37.5425 408.548 37.4131 408.505 37.3247C408.484 37.2805 408.468 37.2465 408.456 37.2231C408.45 37.2114 408.446 37.2023 408.443 37.1959C408.441 37.1927 408.44 37.1902 408.439 37.1884C408.439 37.1875 408.438 37.1866 408.438 37.1861C408.438 37.1854 408.437 37.1849 407.5 37.4998C406.563 37.8147 406.563 37.8145 406.563 37.8145C406.563 37.8147 406.563 37.8149 406.563 37.8153C406.563 37.8162 406.564 37.8177 406.565 37.8199C406.567 37.8243 406.571 37.8314 406.576 37.841C406.585 37.8604 406.6 37.8903 406.619 37.9303C406.657 38.0103 406.714 38.131 406.788 38.2897C406.934 38.6071 407.145 39.0763 407.4 39.6764C407.909 40.8769 408.592 42.5987 409.279 44.6742C410.655 48.8333 412.036 54.3734 412.103 59.969C412.169 65.5647 410.921 71.1441 407.123 75.4777C403.339 79.7961 396.923 82.99 386.385 83.6296L386.75 85.5441Z" fill="#FF8E00"/>
<path d="M419 144.5C419 144.5 402.746 123 402.746 151.199C402.746 179.398 374.151 203.936 346.486 186.37C318.822 168.803 287.469 206.131 302.267 215.527C317.064 224.923 265.673 202.813 271.486 229.475C277.3 256.137 419 257.5 419 257.5" stroke="#FF8E00" stroke-width="2"/>
<path d="M18.0681 231.482C17.814 231.928 18.0252 232.521 18.5399 232.807C19.0545 233.093 19.6776 232.964 19.9317 232.518L18.0681 231.482ZM18.9999 232C19.9317 232.518 19.9319 232.518 19.9322 232.517C19.9326 232.516 19.9332 232.515 19.9339 232.514C19.9355 232.511 19.9378 232.507 19.9409 232.502C19.9471 232.491 19.9564 232.475 19.9688 232.453C19.9935 232.41 20.0306 232.345 20.0796 232.26C20.1776 232.089 20.3233 231.836 20.5136 231.507C20.8943 230.85 21.4535 229.889 22.1671 228.678C23.5944 226.257 25.6387 222.836 28.1059 218.839C33.042 210.842 39.6642 200.552 46.4211 191.353C53.2043 182.118 60.0421 174.097 65.4013 170.534C66.7322 169.649 67.9217 169.073 68.9516 168.809C69.9765 168.545 70.7592 168.609 71.3656 168.882C71.9682 169.153 72.5887 169.719 73.141 170.813C73.6972 171.914 74.1433 173.476 74.4168 175.593L76.4804 175.578C76.1926 173.35 75.7066 171.55 75.0083 170.168C74.3062 168.778 73.35 167.737 72.1021 167.175C70.8581 166.614 69.5166 166.616 68.1921 166.956C66.8726 167.295 65.4874 167.99 64.067 168.934C58.4211 172.689 51.4274 180.945 44.6597 190.159C37.8658 199.409 31.2177 209.741 26.2713 217.754C23.7972 221.762 21.7472 225.193 20.3154 227.622C19.5995 228.836 19.0381 229.801 18.6554 230.462C18.4641 230.792 18.3175 231.047 18.2186 231.219C18.1691 231.305 18.1316 231.371 18.1064 231.415C18.0938 231.437 18.0843 231.454 18.0779 231.465C18.0747 231.47 18.0723 231.475 18.0706 231.477C18.0698 231.479 18.0692 231.48 18.0688 231.481C18.0683 231.482 18.0681 231.482 18.9999 232ZM74.4168 175.593C76.7029 193.293 88.6385 209.152 101.806 217.854C108.391 222.207 115.368 224.824 121.668 224.912C128.019 225 133.588 222.512 137.238 216.839L135.42 215.728C132.101 220.887 127.136 223.073 121.467 222.994C115.746 222.914 109.217 220.521 102.886 216.337C90.2196 207.966 78.6845 192.644 76.4804 175.578L74.4168 175.593ZM260.733 195.459C265.979 193.493 269.473 191.537 271.487 189.574C273.526 187.587 274.145 185.477 273.292 183.342C272.484 181.319 270.45 179.55 267.919 178.013C265.354 176.457 262.096 175.03 258.561 173.744C251.485 171.171 243.122 169.1 236.553 167.674C233.264 166.96 230.414 166.406 228.385 166.031C227.371 165.843 226.562 165.699 226.005 165.603C225.727 165.555 225.512 165.518 225.366 165.494C225.293 165.481 225.238 165.472 225.2 165.466C225.181 165.463 225.167 165.46 225.157 165.459C225.152 165.458 225.148 165.457 225.146 165.457C225.145 165.457 225.144 165.456 225.143 165.456C225.142 165.456 225.142 165.456 225.073 166.4C225.005 167.344 225.005 167.344 225.006 167.344C225.006 167.344 225.007 167.345 225.008 167.345C225.01 167.345 225.013 167.346 225.018 167.346C225.027 167.348 225.04 167.35 225.058 167.353C225.094 167.359 225.148 167.368 225.219 167.38C225.361 167.404 225.572 167.44 225.846 167.487C226.395 167.582 227.195 167.724 228.2 167.91C230.21 168.283 233.036 168.832 236.297 169.54C242.83 170.958 251.07 173.002 257.993 175.52C261.457 176.78 264.548 178.142 266.919 179.581C269.324 181.041 270.812 182.474 271.351 183.822C271.845 185.059 271.633 186.49 269.904 188.176C268.149 189.886 264.935 191.735 259.773 193.669L260.733 195.459ZM137.238 216.839C138.923 214.22 140.6 212.964 142.207 212.541C143.783 212.127 145.492 212.463 147.442 213.466C149.412 214.479 151.528 216.124 153.82 218.173C156.11 220.219 158.494 222.592 161.037 225.045C166.068 229.898 171.689 235.041 177.868 237.813C180.982 239.21 184.263 240.019 187.695 239.881C191.127 239.743 194.64 238.662 198.235 236.381L196.933 234.761C193.572 236.894 190.389 237.843 187.374 237.964C184.36 238.085 181.444 237.381 178.6 236.105C172.863 233.53 167.522 228.685 162.46 223.802C159.956 221.387 157.511 218.954 155.177 216.869C152.846 214.785 150.545 212.973 148.293 211.814C146.021 210.645 143.703 210.095 141.436 210.691C139.201 211.279 137.22 212.931 135.42 215.728L137.238 216.839ZM198.235 236.381C212.224 227.506 217.585 221.06 224.497 215.028C231.385 209.018 239.994 203.229 260.733 195.459L259.773 193.669C238.875 201.499 230.064 207.387 222.983 213.566C215.926 219.725 210.771 225.982 196.933 234.761L198.235 236.381Z" fill="#FF8E00"/>
<path d="M19.0677 147.074C18.5767 147.298 18.3722 147.895 18.6109 148.406C18.8497 148.918 19.4413 149.151 19.9323 148.926L19.0677 147.074ZM24.3443 114.601C24.6169 115.112 25.0427 115.597 25.5012 116.049C25.9691 116.509 26.5331 116.994 27.1341 117.495C28.3555 118.514 29.76 119.627 31.1255 120.935C33.8577 123.552 36.2015 126.733 36.2015 130.823L38.1786 130.901C38.1786 125.94 35.314 122.23 32.4464 119.484C31.0121 118.11 29.5189 116.925 28.3469 115.947C27.7512 115.451 27.2445 115.013 26.8432 114.618C26.4324 114.214 26.1903 113.909 26.0716 113.686L24.3443 114.601ZM36.2015 130.823C36.2015 132.752 35.252 134.739 33.6572 136.692C32.0729 138.632 29.9355 140.436 27.7588 141.988C25.5879 143.536 23.4115 144.809 21.7747 145.697C20.9574 146.141 20.2771 146.487 19.8026 146.721C19.5654 146.838 19.3799 146.927 19.2545 146.986C19.1918 147.016 19.1441 147.039 19.1126 147.053C19.0969 147.061 19.0852 147.066 19.0776 147.069C19.0739 147.071 19.0711 147.072 19.0695 147.073C19.0686 147.074 19.0681 147.074 19.0678 147.074C19.0676 147.074 19.0676 147.074 19.0675 147.074C19.0676 147.074 19.0677 147.074 19.5 148C19.9323 148.926 19.9325 148.926 19.9328 148.926C19.933 148.926 19.9334 148.926 19.9338 148.925C19.9345 148.925 19.9356 148.925 19.9369 148.924C19.9395 148.923 19.9432 148.921 19.9479 148.919C19.9574 148.915 19.9711 148.908 19.9888 148.9C20.0242 148.883 20.0759 148.859 20.1428 148.828C20.2765 148.764 20.471 148.671 20.7175 148.549C21.2105 148.306 21.9123 147.949 22.7534 147.493C24.4335 146.581 26.6796 145.267 28.9312 143.662C31.1771 142.061 33.4622 140.146 35.1948 138.024C36.9169 135.915 38.1786 133.497 38.1786 130.901L36.2015 130.823Z" fill="#FF8E00"/>
<path d="M232.438 103.892C232.438 103.892 228.405 119.784 180.661 120.175C132.917 120.566 198.961 99.6798 183.084 78.0969C167.207 56.5139 137.342 83.2531 111.112 86.7987C84.882 90.3443 75.8395 55.0713 40.948 72.6779C6.05653 90.2844 25.4273 114.421 25.4273 114.421" stroke="#FF8E00" stroke-width="2"/>
<path d="M202.143 36.521C202.143 36.521 183 57.0001 218 73.5209C253 90.0416 277.5 50.0418 312 73.5209C346.5 97 332.5 36.5211 332.5 36.5211" stroke="#FF8E00" stroke-width="2" stroke-linecap="round"/>
<rect x="62.0063" y="164" width="313.994" height="42" rx="10" fill="#667FC1"/>
<path d="M66.7818 194V175.091H74.0204C75.3869 175.091 76.5226 175.306 77.4274 175.737C78.3384 176.162 79.0185 176.744 79.4679 177.482C79.9234 178.221 80.1511 179.058 80.1511 179.994C80.1511 180.763 80.0034 181.422 79.7079 181.969C79.4125 182.511 79.0155 182.951 78.5169 183.29C78.0183 183.628 77.4612 183.871 76.8457 184.019V184.204C77.5166 184.241 78.1599 184.447 78.7754 184.822C79.3971 185.192 79.9049 185.715 80.2988 186.392C80.6928 187.069 80.8897 187.888 80.8897 188.848C80.8897 189.827 80.6528 190.707 80.1788 191.489C79.7048 192.264 78.9908 192.877 78.0368 193.326C77.0827 193.775 75.8824 194 74.4359 194H66.7818ZM70.2072 191.138H73.8912C75.1345 191.138 76.0301 190.901 76.578 190.427C77.1319 189.947 77.4089 189.331 77.4089 188.58C77.4089 188.02 77.2704 187.515 76.9934 187.066C76.7164 186.611 76.3225 186.254 75.8116 185.995C75.3007 185.73 74.6914 185.598 73.9835 185.598H70.2072V191.138ZM70.2072 183.133H73.5957C74.1866 183.133 74.7191 183.025 75.193 182.81C75.667 182.588 76.0394 182.277 76.3102 181.877C76.5872 181.471 76.7257 180.991 76.7257 180.437C76.7257 179.704 76.4672 179.101 75.9501 178.627C75.4392 178.153 74.679 177.916 73.6696 177.916H70.2072V183.133ZM83.8697 194V175.091H96.168V177.962H87.2951V183.096H95.5309V185.967H87.2951V191.129H96.2418V194H83.8697ZM99.6626 194V175.091H111.822V177.962H103.088V182.394H106.735C108.182 182.394 109.422 182.631 110.456 183.105C111.496 183.573 112.293 184.235 112.847 185.09C113.401 185.946 113.678 186.952 113.678 188.109C113.678 189.273 113.401 190.298 112.847 191.184C112.293 192.064 111.496 192.754 110.456 193.252C109.422 193.751 108.182 194 106.735 194H99.6626ZM103.088 191.193H106.735C107.498 191.193 108.145 191.049 108.674 190.759C109.203 190.47 109.603 190.088 109.874 189.614C110.151 189.14 110.29 188.626 110.29 188.072C110.29 187.272 109.982 186.592 109.366 186.032C108.757 185.466 107.88 185.183 106.735 185.183H103.088V191.193ZM125.123 183.17V185.921H116.61V183.17H125.123ZM144.214 175.091V194H140.816V177.935H132.544V194H129.146V175.091H144.214ZM148.311 194V175.091H155.402C156.855 175.091 158.073 175.362 159.058 175.903C160.049 176.445 160.797 177.19 161.302 178.138C161.813 179.08 162.068 180.151 162.068 181.351C162.068 182.563 161.813 183.641 161.302 184.582C160.791 185.524 160.037 186.266 159.04 186.808C158.043 187.343 156.815 187.611 155.356 187.611H150.656V184.795H154.894C155.744 184.795 156.439 184.647 156.981 184.352C157.522 184.056 157.923 183.65 158.181 183.133C158.446 182.616 158.578 182.022 158.578 181.351C158.578 180.68 158.446 180.089 158.181 179.578C157.923 179.067 157.519 178.67 156.972 178.387C156.43 178.098 155.731 177.953 154.876 177.953H151.737V194H148.311ZM181.94 184.545C181.94 186.583 181.558 188.328 180.795 189.781C180.038 191.227 179.004 192.335 177.693 193.104C176.388 193.874 174.907 194.259 173.252 194.259C171.596 194.259 170.112 193.874 168.801 193.104C167.496 192.329 166.462 191.218 165.699 189.771C164.942 188.319 164.563 186.577 164.563 184.545C164.563 182.508 164.942 180.766 165.699 179.32C166.462 177.867 167.496 176.756 168.801 175.987C170.112 175.217 171.596 174.832 173.252 174.832C174.907 174.832 176.388 175.217 177.693 175.987C179.004 176.756 180.038 177.867 180.795 179.32C181.558 180.766 181.94 182.508 181.94 184.545ZM178.496 184.545C178.496 183.111 178.271 181.902 177.822 180.917C177.379 179.926 176.763 179.178 175.975 178.673C175.187 178.162 174.28 177.907 173.252 177.907C172.224 177.907 171.316 178.162 170.528 178.673C169.74 179.178 169.121 179.926 168.672 180.917C168.229 181.902 168.007 183.111 168.007 184.545C168.007 185.98 168.229 187.192 168.672 188.183C169.121 189.168 169.74 189.916 170.528 190.427C171.316 190.932 172.224 191.184 173.252 191.184C174.28 191.184 175.187 190.932 175.975 190.427C176.763 189.916 177.379 189.168 177.822 188.183C178.271 187.192 178.496 185.98 178.496 184.545ZM197.338 175.091V177.962H188.604V194H185.178V175.091H197.338ZM200.235 194V175.091H207.326C208.778 175.091 209.997 175.362 210.982 175.903C211.973 176.445 212.721 177.19 213.226 178.138C213.737 179.08 213.992 180.151 213.992 181.351C213.992 182.563 213.737 183.641 213.226 184.582C212.715 185.524 211.961 186.266 210.964 186.808C209.966 187.343 208.738 187.611 207.28 187.611H202.58V184.795H206.818C207.667 184.795 208.363 184.647 208.905 184.352C209.446 184.056 209.846 183.65 210.105 183.133C210.37 182.616 210.502 182.022 210.502 181.351C210.502 180.68 210.37 180.089 210.105 179.578C209.846 179.067 209.443 178.67 208.895 178.387C208.354 178.098 207.655 177.953 206.8 177.953H203.66V194H200.235ZM217.288 194H213.632L220.289 175.091H224.518L231.184 194H227.528L222.477 178.969H222.329L217.288 194ZM217.408 186.586H227.38V189.337H217.408V186.586ZM233.674 175.091H237.866L243.48 188.793H243.701L249.315 175.091H253.507V194H250.22V181.009H250.044L244.819 193.945H242.363L237.137 180.982H236.961V194H233.674V175.091ZM257.237 175.091H261.429L267.042 188.793H267.264L272.877 175.091H277.069V194H273.782V181.009H273.607L268.381 193.945H265.925L260.699 180.982H260.524V194H257.237V175.091ZM280.799 175.091H284.197V187.98H284.373L293.264 175.091H296.338V194H292.913V181.12H292.756L283.837 194H280.799V175.091ZM316.256 181.471H312.803C312.705 180.905 312.523 180.403 312.258 179.966C311.994 179.523 311.664 179.147 311.27 178.839C310.876 178.532 310.427 178.301 309.922 178.147C309.424 177.987 308.885 177.907 308.307 177.907C307.279 177.907 306.368 178.165 305.574 178.683C304.78 179.193 304.158 179.944 303.709 180.935C303.259 181.92 303.035 183.124 303.035 184.545C303.035 185.992 303.259 187.211 303.709 188.202C304.164 189.187 304.786 189.931 305.574 190.436C306.368 190.935 307.276 191.184 308.297 191.184C308.864 191.184 309.393 191.11 309.885 190.962C310.384 190.808 310.83 190.584 311.224 190.288C311.624 189.993 311.96 189.63 312.231 189.199C312.508 188.768 312.698 188.276 312.803 187.722L316.256 187.74C316.127 188.639 315.847 189.482 315.416 190.27C314.991 191.058 314.434 191.753 313.745 192.357C313.055 192.954 312.249 193.421 311.326 193.76C310.403 194.092 309.378 194.259 308.251 194.259C306.589 194.259 305.106 193.874 303.801 193.104C302.496 192.335 301.468 191.224 300.717 189.771C299.966 188.319 299.591 186.577 299.591 184.545C299.591 182.508 299.969 180.766 300.726 179.32C301.483 177.867 302.515 176.756 303.819 175.987C305.124 175.217 306.602 174.832 308.251 174.832C309.304 174.832 310.283 174.98 311.187 175.276C312.092 175.571 312.899 176.005 313.606 176.577C314.314 177.144 314.896 177.839 315.351 178.664C315.813 179.483 316.115 180.418 316.256 181.471ZM318.562 177.962V175.091H333.649V177.962H327.804V194H324.407V177.962H318.562ZM352.616 184.545C352.616 186.583 352.234 188.328 351.471 189.781C350.714 191.227 349.68 192.335 348.368 193.104C347.064 193.874 345.583 194.259 343.927 194.259C342.272 194.259 340.788 193.874 339.477 193.104C338.172 192.329 337.138 191.218 336.375 189.771C335.618 188.319 335.239 186.577 335.239 184.545C335.239 182.508 335.618 180.766 336.375 179.32C337.138 177.867 338.172 176.756 339.477 175.987C340.788 175.217 342.272 174.832 343.927 174.832C345.583 174.832 347.064 175.217 348.368 175.987C349.68 176.756 350.714 177.867 351.471 179.32C352.234 180.766 352.616 182.508 352.616 184.545ZM349.172 184.545C349.172 183.111 348.947 181.902 348.498 180.917C348.055 179.926 347.439 179.178 346.651 178.673C345.863 178.162 344.955 177.907 343.927 177.907C342.899 177.907 341.992 178.162 341.204 178.673C340.416 179.178 339.797 179.926 339.348 180.917C338.905 181.902 338.683 183.111 338.683 184.545C338.683 185.98 338.905 187.192 339.348 188.183C339.797 189.168 340.416 189.916 341.204 190.427C341.992 190.932 342.899 191.184 343.927 191.184C344.955 191.184 345.863 190.932 346.651 190.427C347.439 189.916 348.055 189.168 348.498 188.183C348.947 187.192 349.172 185.98 349.172 184.545ZM355.854 194V175.091H363.093C364.459 175.091 365.595 175.306 366.5 175.737C367.411 176.162 368.091 176.744 368.54 177.482C368.996 178.221 369.223 179.058 369.223 179.994C369.223 180.763 369.076 181.422 368.78 181.969C368.485 182.511 368.088 182.951 367.589 183.29C367.091 183.628 366.534 183.871 365.918 184.019V184.204C366.589 184.241 367.232 184.447 367.848 184.822C368.469 185.192 368.977 185.715 369.371 186.392C369.765 187.069 369.962 187.888 369.962 188.848C369.962 189.827 369.725 190.707 369.251 191.489C368.777 192.264 368.063 192.877 367.109 193.326C366.155 193.775 364.955 194 363.508 194H355.854ZM359.279 191.138H362.963C364.207 191.138 365.102 190.901 365.65 190.427C366.204 189.947 366.481 189.331 366.481 188.58C366.481 188.02 366.343 187.515 366.066 187.066C365.789 186.611 365.395 186.254 364.884 185.995C364.373 185.73 363.764 185.598 363.056 185.598H359.279V191.138ZM359.279 183.133H362.668C363.259 183.133 363.791 183.025 364.265 182.81C364.739 182.588 365.112 182.277 365.382 181.877C365.659 181.471 365.798 180.991 365.798 180.437C365.798 179.704 365.539 179.101 365.022 178.627C364.512 178.153 363.751 177.916 362.742 177.916H359.279V183.133Z" fill="white"/>
<path d="M65.717 157.21V150.418H66.8846C67.2766 150.105 67.6431 149.665 67.984 149.097C68.3249 148.528 68.6147 147.75 68.8533 146.761C69.092 145.773 69.2567 144.494 69.3477 142.926L69.8079 135.545H80.9641V150.418H82.9073V157.193H79.8732V153H68.7511V157.21H65.717ZM70.5664 150.418H77.93V138.196H72.6545L72.3817 142.926C72.3079 144.114 72.1886 145.176 72.0238 146.114C71.859 147.051 71.6516 147.878 71.4016 148.594C71.1516 149.304 70.8732 149.912 70.5664 150.418ZM84.3498 153V150.375L84.8441 150.349C85.5146 150.31 86.0458 150.068 86.4379 149.625C86.8356 149.182 87.1282 148.469 87.3157 147.486C87.5089 146.503 87.6367 145.185 87.6992 143.531L87.989 135.545H99.4265V153H96.3327V138.145H90.9379L90.6651 144.511C90.5856 146.42 90.3754 148.003 90.0344 149.259C89.6992 150.514 89.1481 151.452 88.381 152.071C87.6197 152.69 86.56 153 85.2021 153H84.3498ZM115.76 153H112.59V138.188H109.692C108.908 138.188 108.263 138.304 107.757 138.537C107.257 138.764 106.885 139.099 106.641 139.543C106.402 139.98 106.283 140.509 106.283 141.128C106.283 141.747 106.402 142.27 106.641 142.696C106.88 143.116 107.249 143.437 107.749 143.659C108.255 143.875 108.897 143.983 109.675 143.983H113.919V146.608H109.249C107.908 146.608 106.777 146.386 105.857 145.943C104.936 145.494 104.238 144.861 103.76 144.043C103.289 143.219 103.053 142.247 103.053 141.128C103.053 140.014 103.286 139.04 103.752 138.205C104.223 137.364 104.917 136.71 105.831 136.244C106.746 135.778 107.871 135.545 109.206 135.545H115.76V153ZM106.735 145.091H110.186L105.942 153H102.414L106.735 145.091ZM125.14 153V135.545H128.301V142.935H136.39V135.545H139.56V153H136.39V145.585H128.301V153H125.14ZM145.24 153H141.865L148.01 135.545H151.914L158.067 153H154.692L150.03 139.125H149.894L145.24 153ZM145.351 146.156H154.556V148.696H145.351V146.156ZM160.886 135.545H163.98V141.239C163.98 141.977 164.108 142.562 164.363 142.994C164.625 143.426 165.011 143.736 165.522 143.923C166.034 144.111 166.67 144.205 167.431 144.205C167.772 144.205 168.139 144.193 168.531 144.17C168.929 144.142 169.329 144.105 169.733 144.06C170.136 144.009 170.522 143.949 170.892 143.881C171.261 143.807 171.591 143.727 171.88 143.642V146.216C171.591 146.307 171.267 146.389 170.909 146.463C170.551 146.537 170.173 146.599 169.775 146.651C169.377 146.702 168.98 146.741 168.582 146.77C168.184 146.798 167.801 146.812 167.431 146.812C166.096 146.812 164.937 146.622 163.954 146.241C162.977 145.855 162.221 145.253 161.687 144.435C161.153 143.616 160.886 142.551 160.886 141.239V135.545ZM171.36 135.545H174.471V153H171.36V135.545ZM178.319 135.545H181.456V147.443H181.618L189.825 135.545H192.663V153H189.501V141.111H189.356L181.123 153H178.319V135.545ZM196.108 153V135.545H199.27V142.935H207.358V135.545H210.529V153H207.358V145.585H199.27V153H196.108ZM216.209 153H212.834L218.979 135.545H222.882L229.036 153H225.661L220.999 139.125H220.863L216.209 153ZM216.32 146.156H225.525V148.696H216.32V146.156ZM234.497 135.545V153H231.335V135.545H234.497ZM238.272 143.259V145.798H232.775V143.259H238.272ZM253.324 144.273C253.324 146.153 252.971 147.764 252.267 149.105C251.568 150.44 250.613 151.463 249.403 152.173C248.199 152.884 246.832 153.239 245.304 153.239C243.775 153.239 242.406 152.884 241.196 152.173C239.991 151.457 239.037 150.432 238.332 149.097C237.633 147.756 237.284 146.148 237.284 144.273C237.284 142.392 237.633 140.784 238.332 139.449C239.037 138.108 239.991 137.082 241.196 136.372C242.406 135.662 243.775 135.307 245.304 135.307C246.832 135.307 248.199 135.662 249.403 136.372C250.613 137.082 251.568 138.108 252.267 139.449C252.971 140.784 253.324 142.392 253.324 144.273ZM250.145 144.273C250.145 142.949 249.937 141.832 249.522 140.923C249.113 140.009 248.545 139.318 247.818 138.852C247.091 138.381 246.252 138.145 245.304 138.145C244.355 138.145 243.517 138.381 242.789 138.852C242.062 139.318 241.491 140.009 241.076 140.923C240.667 141.832 240.463 142.949 240.463 144.273C240.463 145.597 240.667 146.716 241.076 147.631C241.491 148.54 242.062 149.23 242.789 149.702C243.517 150.168 244.355 150.401 245.304 150.401C246.252 150.401 247.091 150.168 247.818 149.702C248.545 149.23 249.113 148.54 249.522 147.631C249.937 146.716 250.145 145.597 250.145 144.273ZM278.664 150.469L278.425 157.108H275.502V153H273.993V150.469H278.664ZM256.803 135.545H259.914V150.375H265.3V135.545H268.394V150.375H273.738V135.545H276.831V153H256.803V135.545ZM281.233 135.545H284.37V147.443H284.532L292.739 135.545H295.577V153H292.415V141.111H292.27L284.037 153H281.233V135.545ZM301.664 135.545L305.508 141.938H305.645L309.505 135.545H313.11L307.733 144.273L313.196 153H309.531L305.645 146.651H305.508L301.622 153H297.974L303.488 144.273L298.042 135.545H301.664Z" fill="black"/>
<path d="M79.8782 124L74.1339 116.372H72.5827V124H69.4208V106.545H72.5827V113.722H73.3754L79.5799 106.545H83.4748L76.5799 114.506L83.7731 124H79.8782ZM87.4805 124.239V121.58H88.4776C88.9265 121.58 89.2958 121.514 89.5856 121.384C89.8754 121.253 90.1083 121.065 90.2844 120.821C90.4663 120.577 90.6168 120.293 90.7362 119.969L90.9663 119.381L84.7276 106.545H88.0344L92.381 115.886L96.1396 106.545H99.3952L93.3782 120.778C93.0998 121.392 92.7788 121.963 92.4151 122.491C92.0515 123.014 91.5771 123.437 90.9918 123.761C90.4123 124.08 89.6566 124.239 88.7248 124.239H87.4805ZM101.647 124V106.545H108.193C109.534 106.545 110.659 106.795 111.568 107.295C112.483 107.795 113.173 108.483 113.639 109.358C114.11 110.227 114.346 111.216 114.346 112.324C114.346 113.443 114.11 114.437 113.639 115.307C113.167 116.176 112.471 116.861 111.551 117.361C110.63 117.855 109.497 118.102 108.15 118.102H103.812V115.503H107.724C108.508 115.503 109.15 115.366 109.65 115.094C110.15 114.821 110.52 114.446 110.758 113.969C111.002 113.491 111.125 112.943 111.125 112.324C111.125 111.705 111.002 111.159 110.758 110.688C110.52 110.216 110.147 109.849 109.642 109.588C109.142 109.321 108.497 109.188 107.707 109.188H104.809V124H101.647ZM132.033 112.435H128.846C128.755 111.912 128.587 111.449 128.343 111.045C128.098 110.636 127.794 110.29 127.431 110.006C127.067 109.722 126.652 109.509 126.186 109.366C125.726 109.219 125.229 109.145 124.695 109.145C123.746 109.145 122.905 109.384 122.172 109.861C121.439 110.332 120.865 111.026 120.451 111.94C120.036 112.849 119.828 113.96 119.828 115.273C119.828 116.608 120.036 117.733 120.451 118.648C120.871 119.557 121.445 120.244 122.172 120.71C122.905 121.17 123.743 121.401 124.686 121.401C125.209 121.401 125.698 121.332 126.152 121.196C126.613 121.054 127.025 120.847 127.388 120.574C127.757 120.301 128.067 119.966 128.317 119.568C128.573 119.17 128.749 118.716 128.846 118.205L132.033 118.222C131.914 119.051 131.655 119.83 131.257 120.557C130.865 121.284 130.351 121.926 129.715 122.483C129.078 123.034 128.334 123.466 127.482 123.778C126.63 124.085 125.684 124.239 124.644 124.239C123.11 124.239 121.74 123.884 120.536 123.173C119.331 122.463 118.382 121.438 117.689 120.097C116.996 118.756 116.65 117.148 116.65 115.273C116.65 113.392 116.999 111.784 117.698 110.449C118.397 109.108 119.348 108.082 120.553 107.372C121.757 106.662 123.121 106.307 124.644 106.307C125.615 106.307 126.519 106.443 127.354 106.716C128.189 106.989 128.934 107.389 129.587 107.918C130.24 108.44 130.777 109.082 131.198 109.844C131.624 110.599 131.902 111.463 132.033 112.435ZM137.068 113.287H141.5C142.835 113.287 143.98 113.506 144.934 113.943C145.895 114.375 146.63 114.986 147.142 115.776C147.653 116.565 147.909 117.494 147.909 118.562C147.909 119.636 147.653 120.582 147.142 121.401C146.63 122.213 145.895 122.849 144.934 123.31C143.98 123.77 142.835 124 141.5 124H134.963V106.545H138.133V121.409H141.5C142.204 121.409 142.801 121.276 143.289 121.009C143.778 120.741 144.147 120.389 144.397 119.952C144.653 119.514 144.781 119.04 144.781 118.528C144.781 117.79 144.497 117.162 143.929 116.645C143.366 116.122 142.556 115.861 141.5 115.861H137.068V113.287ZM152.588 106.545V124H149.417V106.545H152.588Z" fill="black"/>
</svg>
