<svg width="53" height="54" viewBox="0 0 53 54" fill="none" xmlns="http://www.w3.org/2000/svg">
<path d="M20.3159 13.3911L7.36632 7.25131L13.0504 20.4073L20.3159 13.3911Z" fill="#FF9C00"/>
<path d="M20.3159 13.3911L7.36632 7.25131L13.0504 20.4073L20.3159 13.3911Z" fill="#FF9C00"/>
<path d="M20.3159 13.3911L7.36632 7.25131L13.0504 20.4073L20.3159 13.3911Z" stroke="#5F3900" stroke-width="2"/>
<path d="M32.4511 13.3911L45.4008 7.25131L39.7167 20.4073L32.4511 13.3911Z" fill="#FF9C00"/>
<path d="M32.4511 13.3911L45.4008 7.25131L39.7167 20.4073L32.4511 13.3911Z" fill="#FF9C00"/>
<path d="M32.4511 13.3911L45.4008 7.25131L39.7167 20.4073L32.4511 13.3911Z" stroke="#5F3900" stroke-width="2"/>
<path d="M21.3335 37.7324L26.3837 51.1445L31.4338 37.7324H21.3335Z" fill="#FF9C00"/>
<path d="M21.3335 37.7324L26.3837 51.1445L31.4338 37.7324H21.3335Z" fill="#FF9C00"/>
<path d="M21.3335 37.7324L26.3837 51.1445L31.4338 37.7324H21.3335Z" stroke="#5F3900" stroke-width="2"/>
<path d="M26 12C18.2358 12 12 18.0758 12 25.5C12 32.9242 18.2358 39 26 39C33.7642 39 40 32.9242 40 25.5C40 18.0758 33.7642 12 26 12Z" fill="#FF9C00" stroke="#5F3900" stroke-width="2"/>
</svg>
