<svg width="54" height="53" viewBox="0 0 54 53" fill="none" xmlns="http://www.w3.org/2000/svg">
<path d="M51.5 28.9788V51" stroke="black" stroke-width="3" stroke-linecap="round"/>
<path d="M28.5 51H51.5" stroke="black" stroke-width="3" stroke-linecap="round"/>
<path d="M2.5 24.0213L2.5 1.99999" stroke="black" stroke-width="3" stroke-linecap="round"/>
<path d="M25.5 2.00003L2.5 2.00003" stroke="black" stroke-width="3" stroke-linecap="round"/>
<path d="M2.5 33L2.5 36.8871L5.5 41.2742L2 49.5" stroke="black" stroke-width="3" stroke-linecap="round"/>
<path d="M19.5 51H15.3243L10.5 47L2 49.6154" stroke="black" stroke-width="3" stroke-linecap="round"/>
<path d="M51.5 20V16.1129L48.5 11.7258L52 3.5" stroke="black" stroke-width="3" stroke-linecap="round"/>
<path d="M34.5 2L38.6757 2L43.5 6L52 3.38463" stroke="black" stroke-width="3" stroke-linecap="round"/>
<path d="M10.5998 14.16C10.5278 13.896 11.7398 13.764 14.2358 13.764C16.9958 13.764 18.4118 13.992 18.4838 14.448L20.2478 29.604L24.0638 14.268C24.1838 13.908 25.1198 13.728 26.8718 13.728C28.6238 13.728 29.5598 13.896 29.6797 14.232L33.4238 29.676L35.5118 14.376C35.5598 14.112 36.1118 13.932 37.1678 13.836C38.2238 13.74 39.0758 13.692 39.7238 13.692C42.2438 13.692 43.4678 13.86 43.3958 14.196L39.0398 38.064C38.9438 38.424 38.2598 38.688 36.9878 38.856C35.7158 39.024 34.6838 39.108 33.8918 39.108C30.9158 39.108 29.3558 38.772 29.2118 38.1L26.7638 28.2L24.0998 38.064C24.0038 38.496 23.1638 38.808 21.5798 39C20.7638 39.072 19.9478 39.108 19.1318 39.108L16.8278 39C15.2438 38.832 14.4038 38.532 14.3078 38.1L10.5998 14.16Z" fill="black"/>
</svg>
